<svg width="142" height="174" viewBox="0 0 142 174" fill="none" xmlns="http://www.w3.org/2000/svg">
<path d="M120.608 19.7C109.308 8.5 95.3083 0 71.3083 0C35.5084 0 8.80835 26.4 1.80835 53.8C-2.29165 69.6 0.308347 93 12.4083 108.9C18.1083 116.3 23.9083 124.5 34.6083 124.7C39.5083 124.8 45.7083 123.4 50.0083 119L73.7084 93.2L75.9083 90.7L76.1083 90.5L76.2084 88.9L77.5083 90.1H78.2084L78.3083 89.9L77.8083 87L79.8083 85.1C82.4083 82.5 87.1083 75.9 87.1083 75.9L91.6083 83.7L92.6083 83.2L92.8083 82.1L89.5083 72.4C91.3083 69.9 95.7084 63.3 96.2084 58.3C96.5084 54.4 90.8083 58.3 88.4083 62.5L84.7084 69.1C84.7084 69.1 78.1083 72.1 73.1083 74.3L71.2084 75.2L71.3083 76.4L81.9083 74.3C81.9083 74.3 78.9083 81.1 75.5083 84.2L67.9083 85.1L67.4083 86.1L72.6083 86.8C72.6083 86.8 68.5083 94.1 57.8083 94.1C46.4083 94.1 35.3083 85.7 35.1083 69.1C34.9083 51.4 49.0084 33.9 70.3083 33.9C86.6083 33.9 105.608 45.1 105.708 67.9C105.808 81.7 99.8084 88.4 93.2084 95.3L58.8083 135.1C53.2083 141.5 52.5083 152.3 58.9083 160.2L70.5083 173.9L122.908 116.6C133.308 105.1 141.308 90.8 141.308 69.9C141.308 50 132.708 31.7 120.608 19.7Z" fill="#4554F2"/>
</svg>
