<svg xmlns="http://www.w3.org/2000/svg" viewBox="0 0 150 180">
<!-- SVG created with Arrow, by QuiverAI (https://quiver.ai) -->
  <style type="text/css">.cls-0 {fill:#FFFFFF;}</style>
  <path class="cls-0" d="m125.7 21.7c-11.3-11.2-25.3-19.7-49.3-19.7-35.8 0-62.5 26.4-69.5 53.8-4.1 15.8-1.5 39.2 10.6 55.1 5.7 7.4 11.5 15.6 22.2 15.8 4.9 0.1 11.1-1.3 15.4-5.7l23.7-25.8 2.2-2.5 0.2-0.2 0.1-1.6 1.3 1.2h0.7l0.1-0.2-0.5-2.9 2-1.9c2.6-2.6 7.3-9.2 7.3-9.2l4.5 7.8 1-0.5 0.2-1.1-3.3-9.7c1.8-2.5 6.2-9.1 6.7-14.1 0.3-3.9-5.4 0-7.8 4.2l-3.7 6.6s-6.6 3-11.6 5.2l-1.9 0.9 0.1 1.2 10.6-2.1s-3 6.8-6.4 9.9l-7.6 0.9-0.5 1 5.2 0.7s-4.1 7.3-14.8 7.3c-11.4 0-22.5-8.4-22.7-25-0.2-17.7 13.9-35.2 35.2-35.2 16.3 0 35.3 11.2 35.4 34 0.1 13.8-5.9 20.5-12.5 27.4l-34.4 39.8c-5.6 6.4-6.3 17.2 0.1 25.1l11.6 13.7 52.4-57.3c10.4-11.5 18.4-25.8 18.4-46.7 0-19.9-8.6-38.2-20.7-50.2z"/>
</svg>